<svg width="512" height="512" viewBox="0 0 512 512" fill="none" xmlns="http://www.w3.org/2000/svg">
<g clip-path="url(#clip0_121_3)">
<rect width="512" height="512" fill="white"/>
<path d="M418.484 232.607C413.787 247.872 401.752 259.614 382.378 267.833C363.004 275.465 339.226 279.281 311.046 279.281C348.033 292.784 366.526 312.452 366.526 338.284C366.526 343.568 365.646 349.439 363.884 355.897C359.775 369.987 352.436 380.555 341.868 387.6C331.888 394.058 320.733 397.287 308.404 397.287C290.791 397.287 276.701 389.068 266.133 372.629C256.153 356.191 250.575 335.055 249.401 309.223C237.659 337.404 223.569 359.126 207.13 374.39C191.279 389.655 175.427 397.287 159.576 397.287C149.008 397.287 139.615 393.471 131.395 385.839C123.763 377.619 119.947 367.639 119.947 355.897C119.947 335.936 127.286 320.084 141.963 308.342C156.64 296.601 175.427 286.913 198.324 279.281C169.556 279.281 147.54 274.291 132.276 264.31C117.012 254.33 109.379 241.707 109.379 226.443C109.379 221.746 110.26 216.756 112.021 211.472C115.544 199.143 122.295 189.75 132.276 183.292C142.844 176.833 154.586 173.604 167.502 173.604C181.005 173.604 192.453 177.127 201.847 184.172C211.827 190.63 221.514 200.904 230.908 214.995C230.321 212.059 229.146 206.188 227.385 197.382C225.624 188.575 224.743 179.769 224.743 170.963C224.743 150.414 230.321 133.389 241.475 119.885C253.217 105.795 268.188 98.7501 286.388 98.7501C298.717 98.7501 308.698 102.86 316.33 111.079C323.962 118.711 327.778 129.279 327.778 142.782C327.778 151.001 326.604 158.634 324.256 165.679C322.494 171.55 318.972 179.769 313.688 190.337C308.404 200.317 303.414 208.83 298.717 215.875C313.981 201.785 328.072 191.217 340.988 184.172C353.904 177.127 366.82 173.604 379.736 173.604C393.239 173.604 403.513 177.714 410.558 185.933C417.603 194.153 421.126 204.133 421.126 215.875C421.126 221.746 420.245 227.324 418.484 232.607Z" fill="#42A0F3"/>
</g>
<defs>
<clipPath id="clip0_121_3">
<rect width="512" height="512" fill="white"/>
</clipPath>
</defs>
</svg>
